<svg xmlns="http://www.w3.org/2000/svg" width="51.656" height="91.851" viewBox="0 0 51.656 91.851">
  <path id="Path_65" data-name="Path 65" d="M737,348.926c.173,0,11.8,1.792,15.266.52-3.873-1.27-7.461-7.461-7.461-7.461s2.6.955,2.6.435-3.643-3.3-4.857-3.557-5.137-1.491-5.831-4.7c1.908,1.041,3.141.45,5.4-.852-1.215-.085-3.036-2.948-3.036-2.948a3.056,3.056,0,0,0,3.036-.954c-4.077-1.995-5.2-8.24-8.24-11.45s-2.775-4.337-1.735-4.684,4.164,0,6.245,0c-.26-3.3-4.423-5.2-5.985-6.939,1.648-.173,4.337,1.648,4.337,1.648s-.433-3.382-1.988-5.031-1.77-4.234-2.869-4.639-.983-2.6-.983-2.6-.723.245.955-.158,2.775.867,2.89.693-1.272-1.619-2.2-1.908-1.33-2.2-1.966-3.122-1.174-2.232-.6-2.348a15.086,15.086,0,0,1,4.759,1.537,17.148,17.148,0,0,0-4.424-5.276c-.818-.577-1.357-3.107-.779-5.3s-1.388-.462-1.967-3.816c-.456-2.646-.659-5.557-.832-6.709,0,0-.124-.6-.283-.577-.033.006.066.138-.02.138s.013-.139-.02-.138a8.64,8.64,0,0,0-.414,1.705c-.172,1.152-.714,2.992-1.171,5.638-.578,3.354-2.076,1.562-1.5,3.759s-.352,4.771-1.17,5.348a16.857,16.857,0,0,0-4.033,5.233,11.29,11.29,0,0,1,4.337-1.069c.579.116.462.955-.174,1.88s-1.042,2.834-1.966,3.122-2.312,1.735-2.2,1.908,1.213-1.1,2.89-.693.969.375.969.375.117,2.2-.982,2.6-1.329,2.776-2.884,4.423-1.988,5.031-1.988,5.031,2.689-1.821,4.337-1.648c-1.562,1.735-5.725,3.643-5.985,6.939,2.081,0,5.2-.346,6.245,0s1.3,1.475-1.735,4.684-4.163,9.455-8.24,11.45a3.056,3.056,0,0,0,3.036.954s-1.821,2.863-3.036,2.948c2.256,1.3,3.773,1.475,5.681.435-.694,3.209-4.9,4.857-6.115,5.117s-4.857,3.036-4.857,3.557,2.6-.435,2.6-.435-3.588,6.191-7.461,7.461c3.47,1.272,15.093-.52,15.266-.52s-10.928,8.152-13.7,10.06c2.9,1,11.049,1.377,18.175,1.516l0,.046s2.5.035,6.093.021c3.59.014,6.093-.021,6.093-.021l0-.046c7.126-.139,15.276-.52,18.175-1.516C747.925,357.078,736.823,348.926,737,348.926Z" transform="translate(-700.607 -268.721)" fill="#3d3f66"/>
</svg>
