<svg xmlns="http://www.w3.org/2000/svg" width="215.211" height="326.995" viewBox="0 0 215.211 326.995">
  <g id="Group_89" data-name="Group 89" transform="translate(57.647 -179.538)">
    <g id="Group_88" data-name="Group 88">
      <g id="Group_84" data-name="Group 84">
        <g id="Group_83" data-name="Group 83">
          <path id="Path_137" data-name="Path 137" d="M41.333,259.065c-9.558,7.957-11.7,25.456-11,38.541.127,2.375.35,2.159.1,10.471H21.666c.775-11.382.046-25.142-1.64-29.685a26.9,26.9,0,0,1-.675-15.919c1.062-3.473,1.93-6.464,1.64-7.621s-5.306-10.438-5.306-10.438l1.737.4s3.859,7.815,5.4,8.055a35.709,35.709,0,0,1,2.7-6.125s3.473.1,3.28,2.509c-2.991,2.315-4.92,12.253-4.92,12.253s.652,20.573,3.45,18.739c3.94-16.532,12.372-22.984,13.048-23.757,2.412-2.894,12.638-11.963,12.638-11.963s2.026-.676.1,1.254c-3.087,2.6-11.1,10.516-11.1,10.516a37.758,37.758,0,0,1,4.535-.933,66.68,66.68,0,0,0,11.384-3.409,8.355,8.355,0,0,0,2.606-2.895,10.758,10.758,0,0,1-2.316,3.811C53.987,256.1,44.706,256.258,41.333,259.065Z" fill="#373a5b"/>
          <path id="Path_138" data-name="Path 138" d="M20.316,265.5S-7.325,247.408-6.6,236.7c-.29-1.158.724-1.158.724-1.158s-.435,5.355,8.972,13.6c-1.447-4.052,1.157-13.6,1.157-13.6H6.5s-2.2,5.741-1.672,9.7,1.4,6.845,7.091,10.128,9.069,5.6,9.069,5.6Z" fill="#373a5b"/>
          <path id="Path_139" data-name="Path 139" d="M42.015,235.378c1.161-.534,2.162-3.154.335-3.408.4-1.192.53-3.828-1.333-3.654.228-.909-.427-4.15-1.15-2.366.242-.772.4-1.818-.505-2.146a3.057,3.057,0,0,0-.512-2.258c.985-.587,1.044-2.821-.325-2.9.03-.9.1-2.426-1.008-2.426a1.223,1.223,0,0,0-.825-2.075c.087-1.066-.118-2.326-1.335-2.5-.033-1.049-1.348-3.178-2.366-1.859-.232-1.134-1.739-2.355-2.662-1.176-.04-1.311-1.928-1.859-2.284-.62-.594-1.768-2.523-1.253-3.545-.333a2.321,2.321,0,0,0-1.971-.958,3.91,3.91,0,0,1-.2.412c-.331-.876-1.036-.987-1.37-.12a1.385,1.385,0,0,0-2.467.282c-.515-1.128-1.731-.482-2.288.343-.443-1.027-2.011-2.068-3.045-1.346-.573-1.025-2.269-1.1-2.658.008-.418-.713-1.5-1.2-1.868-.292-.869-.449-2.647-1.3-2.995.167A3.019,3.019,0,0,0,1.8,207.979a3.178,3.178,0,0,0-3.962,2.295c-1.778-1.217-3.484,1.284-3.7,2.869-1.405.426-1.311,2.353-1.809,3.53a19.016,19.016,0,0,0-1.5,2.943c.107-1.771-1.688.056-1.5,1.551l1.167,19c.1.388.434.719.529,1.142.7.157,1.162-.259,1.345-.958,1.119,1.328,3.515,1.28,3.151-1.009.9.724,1.808-.144,2.466-.3,1.186-.28,2,.509,2.68-1.312.5,1.2,1.552.263,2-.55a1.261,1.261,0,0,0,2.178-.463c-.226,1.285,1.2,2.991,1.829,1.167-.088.931.868,4.016,1.788,2.3-.056.787.311,2.291,1.216,1.532-.213,1.168.53,2.473,1.663,1.51a1.691,1.691,0,0,0,2.451,1.794,1.291,1.291,0,0,0,2.008.371,1.088,1.088,0,0,0,1.838.666c.335.885,1.18.6,1.82.131.23,1.638,1.455,1.047,2.509.671a1.106,1.106,0,0,0,2,.528c.1,1.425,1.237,1.618,1.992.51.6,1.639,2.1,1.741,3.415.837.9,2.419,2.423-.282,3.246-.912,1.316-1.007,2.686-.9,2.568-3.293,1.1-.1,2.566-2.09,2.194-3.048,1.015.245,2.406-2.188,2.9-2.659C41.047,238.1,44.023,236.837,42.015,235.378Z" fill="#373a5b"/>
          <path id="Path_140" data-name="Path 140" d="M76.975,227.029c-.381.012-.71-.266-1.116-.212-.025-.874.332-2.088-.842-2.008.445-.848.64-2.173-.625-2.305.6-.635.734-1.733-.2-2.028-.052-.889.029-3.557-1.5-2.155.169-1.116-.844-1.646-1.838-1.512-.075-1.54-1.57-.832-2.4-.608-.579.155-.748.407-1.289.5-.508.086-.968-.092-1.474.126a2.195,2.195,0,0,0-1.5-2.521c.115-.907-.122-1.816-1.171-1.829.262-1.225-.689-1.742-1.667-1.03a1.671,1.671,0,0,0-2.646-1.3c-.557-.933-1.939-1.462-2.425-.2-.941-1.217-1.916.119-1.987,1.208-.8-1.046-1.9-.2-2.333.787-1.056-.8-3.1-1.045-3.3.675a1.509,1.509,0,0,0-2.8-.329c-.361-1.323-4.181-3.841-4.4-1.341-.929-1.007-1.579.132-1.492,1.159-1.411-.587-1.446.774-2.342,1.361-1.078.706-2.74.61-3.036,2.372-.676.474-1.388,2.056-.457,2.7-.5.768-2.116,3.47-.332,3.658a6.636,6.636,0,0,0,.525,3.476l2.834,14.5c-.352.889-2.134,4.427.117,3.988-.8.512-1.473,2.765-.139,2.37-.676.5-.876,2.127.338,1.87-.372.658-.527,1.418.118,1.764-.38.876-.017,2,1.04,1.229-.257,1.627,2.712.37,3.354-.2.665.954,1.4.218,1.717-.671a.96.96,0,0,0,1.743.171,1.4,1.4,0,0,0,2.507-.3c.215,1.046,1.281,1.021,1.92.3-.1.979.705,1.433,1.163.954a4.374,4.374,0,0,0-.02,1.337c.438,0,.823.292,1.291.214-.314.833-.656,2.924.8,1.874-1.165.982-.644,3.777,1.065,2.5-.233.906-.058,3.037,1.167,1.486-.244,1.365.565,2.475,1.951,1.805a1.275,1.275,0,0,0,2.037.666,1.271,1.271,0,0,0,2.383-.17c.487,1.086,1.421.5,1.821-.495,1.238.986,1.926-.644,1.785-1.788,1.121.5,1.79-.69,1.878-1.713.869.722,1.557-.307,1.667-1.171,1.255,1.321,2.066-1.849,1.658-2.655,1.1.4.967-1.9.533-2.534.8-.371,1.563-1.891.837-2.486a1.589,1.589,0,0,0-.882-2.972c.876.084,1.064-2.152-.125-2.488.894-.828.793-2.051-.5-2.241.534-.544.326-1.1.616-1.641a8.324,8.324,0,0,1,.76-1.029c.332-1.205.433-1.538-.734-2.5.193-.8.394-1.769-.3-2.312a1.5,1.5,0,0,0,1.433-.935c.717.556,1.892.715,1.865-.533a9.19,9.19,0,0,1,1.484-.125c.463,1.433,2.315,0,2.626-.887C78.779,229,76.6,228.761,76.975,227.029Z" fill="#373a5b"/>
          <path id="Path_141" data-name="Path 141" d="M63.522,206.207c.444-1.124,1.046-3.021-.763-3.008.772-1.422-.221-2.333-1.738-1.986-.132-.115-.022-.508-.074-.676-.411.123-.919.019-1.382.188.856-1.194-.151-2.3-1.492-2.463,1.17-1.058.551-2.307-1-1.994A1.45,1.45,0,0,0,55.5,194.2c.319-.282.511-.939.7-1.156-.3-.009-.638-.042-.943-.081a1.662,1.662,0,0,0-1.742-2.5c.472-2.591,3.21-9.79-1.746-9.249-.192-1.456-1.878-1.412-3-.994-.05-.238-.006-.448-.074-.681a4.36,4.36,0,0,0-2.419.937c-.128-.243-.2-.448-.344-.687a2.133,2.133,0,0,0-1.737,2.174c-2.348-.165-5.515,1.937-6.013,4.207-1.731-1.252-2.34,1.181-2.506,2.568a2.18,2.18,0,0,0-2.693.787c-.871-1.7-2.218-2.459-3.445-.543-.844-2.293-2.4-1.35-3.249.249-.448-2.37-2.9-1.851-2.607.494a2.385,2.385,0,0,0-2.944-.329c-1.241-.506-2.255.165-2.043,1.567-1.662-.254-4.392,1.4-4.25,3-1.268.121-1.079,1.392-1.012,2.511-1.557-1.656-1.868.235-1.743,1.733-.125.1-.371.179-.494.275a2.859,2.859,0,0,1,.325,3.726,14.393,14.393,0,0,1,2.629,1.228,6.993,6.993,0,0,1-.623.356c.061,1.306,1.76,1.407,2.918,1.751-.08,1.3.516,3.644,2.093,2.238a3.577,3.577,0,0,0,2.907.256c.05.236.009.443.074.675.993-.271,2.131-.7,3.176-.169-.088.487.189,1.189.075,1.668.361-.188,1-.118,1.425-.442-.562,3.648,3.159,2.47,4.357.25,1.19,1.958,1.817.228,2.925-.3.381-.181,1.253.078,1.824-.215.314-.162.914-1.472,1.131-1.733-.088.5.131,1.187.087,1.7.27-.086.614-.071.9-.179.9,2.792,2.871.821,3.757-.518.42,1.172.4.857,1.325,1.073.488,1.391,1.091,2.666,2.689,1.946.238,1.363,1.478,1.641,2.238.543a3.429,3.429,0,0,0,1.8,2.149c1.242-1.686,3.724,1.492,5.25-.731l4.5,4.5c3.24.509,5.4-2.539,5.8-5.194C65.092,210.986,65.472,207.614,63.522,206.207Z" fill="#373a5b"/>
        </g>
      </g>
      <g id="Group_87" data-name="Group 87">
        <g id="Group_86" data-name="Group 86">
          <g id="Group_85" data-name="Group 85">
            <path id="Path_142" data-name="Path 142" d="M135.351,315.711c1.454-4.177.083-5.363-3.9-5.888-4.561-.6-2.174-1.7-4.4-4.274-2.145-2.474-5.359-.1-7.924-1.133-.695-.28-.443-1.377-1.195-1.721-.513-.233-1.408.267-1.943.031-.735-.324-2.606-1.787-3.2-1.958-1.82-.524-2.922.632-4.63.1-1.831-.57-2.58-2.469-4.758-2.681-4-.392-4.293,2.312-7.522-.3-3.283-2.657-4.97-4.737-9.771-3.474-1.3.342-2.985,2-4.554,1.555-2.2-.628-1.422-1.714-2.421-3.491-2-3.556-3.836-2.2-7.014-2.025-.339.02-.607.045-.825.073-.161-.443-.309-.855-.408-1.186a14.161,14.161,0,0,0-1.2-3.147c-.217-.343-1.173-.829-1.542-1.205-.4-.4.09-1.069-.25-1.419-.8-.827-1.929-1.586-2.625-2.419-.634-.757-1.543-2.428-2.139-2.98-1.725-1.6-4.614-1.62-6.982-1.7-.368-1.454-2.005-3.023-2.958-3.86-.236-.206-1.7-1.066-1.884-1.166-.592-.32-.613-.739-1.3-1.014-.953-.381-2.753-.094-3.793-.292-.636-.121-1.528-.556-2.413-.685-.58-.084-1.2.4-1.727.29-.452-.1-.631-1.023-.993-1.035-1.029-.034-1.722-.619-2.006.976-1.227-.035-2.438-.119-3.359.786-1.14-1.923-2.691-1.2-4.034-1.5-.627-.139-1.1-.761-2.05-.914-.825-.135-1.911.29-2.819.139-1.405-.232-2.712-1.118-3.927-1.163-1.535-.057-3.145.287-4.914.266a15.22,15.22,0,0,0-2.788-.219c-.989.119-1.69,1.008-2.922.643-.433-.129-.628-1.277-1.186-1.447-.718-.218-.92.174-1.454.095a19.406,19.406,0,0,0-2.25-.078,23.174,23.174,0,0,0-5.285.965,25.3,25.3,0,0,1-2.235,1.454,3.324,3.324,0,0,0-1.188,2.514c-1.261-1.57-6.392-.9-7.775.147-2.007,1.515-2.855,4.489-5.8,4.181.139.4-.008.894.2,1.314-1.583-.117-3.011.62-2.755,2.415-2.366.333-4.3,2.149-6.689,2.708-2.985.7-3.156,1.527-5.276,3.346-.939.807-2.112.794-3.046,1.493-1.336,1-1.089,1.985-2.241,3.268-.86.956-2.113,1.281-3.083,2.715-.848,1.254-1.652,3.055-2.345,4.356-.6,1.132-.654,2.612-1.661,3.628-1.273,1.284-3.158,1.427-4.382,2.7-1.451,1.509-2.17,4.939-3.07,6.978-.968,2.189-.826,3.668-.871,5.8a9.756,9.756,0,0,0,.96,5.467c1.77,3.41,2.659,1.548,5.167,2.914,1.82.991.787,3.5,2.261,4.861.453.419,2.1.08,2.836.64.805.613.712,2.145,1.405,2.811,2.9,2.791,12.724,1.9,13.233-2.773,2.587.409,4.282-1.918,4.46-4.242l-.323-1.29c2.554.6,5.62-.262,8.009.7-.31,4.427,4.312-.84,4.894-1.03,2.257-.738,4.956.976,3.912,3.246.768.024,1.878.52,2.815.356a4.514,4.514,0,0,1,.153,2.879c5.162.382-.4,5.954,5.337,5.187-.053.444.194,1.145.146,1.515.744.045,2.851-.332,3.466.026.959.56.1,1.969.6,2.3,1.641,1.109,3.145.916,5.2,1.016,2.765.135,8.581-2.422,7.837,2.067A5.489,5.489,0,0,1,26,344.339a9.367,9.367,0,0,0,1.035,1.636c.325.257,2.326.012,2.8.026-.52,2.519.594,2.078,1.969,2.854.591.333,1.633-.255,2.275.056,1.111.539.763,1.869,1.841,2.467,2.7,1.5,6.327-.859,9.431.437.806-3.3,4.489-2.067,7.1-2.315.59-.056,1.731.262,2.25.007,1.308-.644.6-.949,1.3-1.62.957-.914.748-2.051,2.856-2.306-.578-2.51.881-1.576,1.749-2.516a7.866,7.866,0,0,1,3.46-2.274c2.15-.65,6.078-1.378,8.121-.651-1.163,2.4,2.387,1.368,3.807,1.935,2.789,1.115,1.564,3.328,3.862,4.7-2.2,1.372.134,2.369.66,3.677.846,2.105-.39,4.589,3.517,3.525-.019-2.4.841-3.454,2.631-3.854a13.269,13.269,0,0,0,2.579.685c.733-.08,1.454-1.1,1.991-1.235a4.59,4.59,0,0,1,4.217.493c.7.348-.261,1.4.849,1.626,1.648.334,1.373-1.056,2.532-1.247,1.454-.24,2.646.552,4.016.605,2.2.085,2.359-.834,4.113-1.234,1.8-.409,2.342-.175,3.564-.952s.426-2.089,3.169-2.323c.279-4.289,3.978-1.119,5.878-2.572,1.741-1.332.3-4.374,3.8-5.168-.3-2.849,2.01-5.479,3.9-7.106,3.148-2.716,2.769-4.408,4.62-7.623.255-.44,1.615-.616,1.967-1.338.376-.771-.26-1.494-.128-1.925C134.236,319.1,134.739,317.467,135.351,315.711Z" fill="#373a5b"/>
            <path id="Path_143" data-name="Path 143" d="M-1,502.5H157.564c-.147-1.829-1.648-2.529-4.444-2.9-4.561-.6-2.174-1.7-4.4-4.275-2.145-2.474-5.359-.1-7.924-1.133-.7-.28-.443-1.377-1.2-1.72-.513-.234-1.408.266-1.943.03-.735-.323-2.606-1.787-3.2-1.958-1.82-.524-2.922.633-4.63.1-1.831-.57-2.58-2.468-4.757-2.681-4-.392-4.294,2.312-7.523-.3-3.283-2.656-4.97-4.736-9.771-3.474-1.3.342-2.985,2-4.554,1.555-2.2-.628-1.422-1.714-2.421-3.491-2-3.556-3.836-2.2-7.014-2.025-.339.02-.607.045-.824.074-.162-.444-.31-.856-.409-1.187a14.153,14.153,0,0,0-1.2-3.146c-.217-.344-1.173-.829-1.542-1.205-.4-.406.09-1.07-.25-1.419-.8-.827-1.929-1.586-2.625-2.419-.634-.758-1.543-2.429-2.139-2.981-1.725-1.6-4.614-1.62-6.982-1.7-.368-1.454-2-3.022-2.958-3.859-.236-.206-1.7-1.067-1.884-1.166-.591-.321-.613-.74-1.3-1.015-.954-.381-2.754-.094-3.794-.292-.636-.121-1.528-.556-2.413-.685-.58-.084-1.2.406-1.727.29-.452-.1-.631-1.023-.993-1.035-1.029-.034-1.722-.619-2.006.976-1.227-.034-2.438-.119-3.359.786-1.14-1.923-2.691-1.2-4.034-1.5-.627-.139-1.1-.761-2.049-.914-.826-.135-1.912.29-2.82.14-1.405-.233-2.712-1.119-3.927-1.163-1.535-.058-3.145.287-4.914.265a15.309,15.309,0,0,0-2.788-.219c-.989.119-1.69,1.008-2.922.643-.433-.129-.628-1.276-1.186-1.446-.718-.219-.92.173-1.454.094a19.406,19.406,0,0,0-2.25-.078,23.229,23.229,0,0,0-5.285.965,25.3,25.3,0,0,1-2.235,1.454,3.326,3.326,0,0,0-1.188,2.515c-1.261-1.57-6.392-.9-7.775.146-2.007,1.515-2.855,4.49-5.8,4.181.139.4-.008.894.2,1.314-1.583-.117-3.011.621-2.755,2.416-1.853.26-3.441,1.423-5.19,2.187Z" fill="#373a5b"/>
            <path id="Path_144" data-name="Path 144" d="M15.364,384.364c0-.726,2.909-.726,3.637-2.18v-2.911H21.91c2.181-3.635-3.637-7.271,2.909-7.271,3.873-6.317-1.455-6.546-.728-11.637,0-1.078-1.2-2.555-3.006-3.544a5.126,5.126,0,0,1-3.24-.241c-1.177-.463-1.5-1.107-2.879-1.274-1.509-.183-3.264,1.228-4.468.982-1.719-.352-1.421-2.106-2.9-2.876-1.258-.655-2.239-.058-3.548-.042-2.871.035-4.463.564-7.1.557-.966,0-2.524.369-3.549.088-1.331-.366-1.889-1.556-3.154-2.224-2.53,3.257-6.373-2.4-9.354-1.659-1.9.472-1.706,2.028-3.946,1.977-1.1-.024-1.9-1.549-3.238-1.331-1.3.215-.856,1.536-1.914,1.9-2.787.953-6.016.086-8.629,1.018-1.529.545-2.384,1.173-3.966,1.588a23.653,23.653,0,0,0-3.792.8c-.575.318-.8,1.735-1.329,2.144-.39.3-2.1.71-2.3,1-.745,1.106-1.251,3.421-1.7,4.639-.021.055-.5,1.7-.535,1.745a25.292,25.292,0,0,0-1.73,1.882c-.41,1.049-.081,2.61-.52,3.621-.63,1.452-2.293,2.058-3.214,3.281-1.831,2.429-.547,1.631-.663,4.459-.138,3.376-.655,5.218-1,8.387-.355,3.289.516,8.634,3.885,9.678l4.516-.322c.2,2.676,4.76.383,6.733.694-.166.732.259,1.758.09,2.483a5.738,5.738,0,0,0,2.492-.007,7.953,7.953,0,0,0,.4-3.445c4.086.342,3.183-1.434,3.627-4.538,2.761,2.382,2.21-.847,4.081-2,1,1.375.363,2.858,1.6,3.916,1.324,1.134,3.691-.967,2.967,2.518,2.111.861,6.779-.491,6.444,3.25,2.3.543,1.849-1.225,3.179-1.9,1.64-.837,2.468-.911,4.435-.025.125-.809.744-1.322.773-2.185A8.078,8.078,0,0,1-9.3,395.6c.7-4.225,4.673-2.569,8.128-2.232,1.337.13,3.313.92,4.578.66,1.523-.313.674-1.6,2.564-1.634.89-.017,1.321.476,1.939.859C11.473,391.478,14.393,388.734,15.364,384.364Z" fill="#373a5b"/>
            <path id="Path_145" data-name="Path 145" d="M9.89,418.3c0-.728-2.909-.728-3.637-2.183v-2.908H3.344c-2.181-3.637,3.637-7.273-2.909-7.273-3.873-6.317,1.455-6.545.728-11.635,0-1.078,1.2-2.556,3.005-3.544a5.144,5.144,0,0,0,3.241-.242c1.176-.462,1.5-1.108,2.879-1.275,1.509-.181,3.264,1.229,4.467.983,1.72-.352,1.422-2.107,2.9-2.876,1.258-.657,2.24-.058,3.548-.041,2.872.034,4.463.563,7.1.556.966,0,2.524.368,3.549.087,1.331-.364,1.889-1.556,3.154-2.223,2.53,3.257,6.373-2.4,9.354-1.661,1.9.475,1.706,2.031,3.946,1.98,1.1-.026,1.9-1.551,3.238-1.332,1.305.215.856,1.535,1.914,1.9,2.787.953,6.016.087,8.629,1.019a42.6,42.6,0,0,0,3.967,1.588,23.558,23.558,0,0,1,3.791.8c.575.318.8,1.735,1.329,2.144.39.3,2.1.71,2.3,1,.745,1.106,1.251,3.421,1.7,4.638.021.056.5,1.7.536,1.747a24.685,24.685,0,0,1,1.729,1.881c.41,1.048.081,2.609.52,3.621.63,1.452,2.293,2.056,3.214,3.28,1.831,2.43.547,1.632.663,4.46.138,3.376.655,5.219,1,8.388.355,3.288-.516,8.633-3.885,9.676l-4.516-.321c-.2,2.675-4.759.383-6.733.693.166.732-.259,1.759-.09,2.485a5.723,5.723,0,0,1-2.492-.009,7.944,7.944,0,0,1-.4-3.443c-4.086.341-3.183-1.436-3.627-4.539-2.761,2.382-2.21-.847-4.081-2-1,1.375-.363,2.857-1.6,3.917-1.322,1.133-3.69-.968-2.966,2.517-2.11.862-6.779-.492-6.444,3.25-2.3.542-1.849-1.225-3.178-1.9-1.641-.838-2.469-.91-4.436-.025-.125-.809-.744-1.322-.772-2.184a8.063,8.063,0,0,0-3.052.247c-.7-4.225-4.673-2.568-8.128-2.231-1.337.13-3.313.92-4.578.66-1.523-.315-.674-1.6-2.564-1.635-.89-.017-1.321.476-1.939.859C13.781,425.417,10.861,422.673,9.89,418.3Z" fill="#373a5b"/>
            <path id="Path_146" data-name="Path 146" d="M-31.065,460.954c0-.727-2.909-.727-3.637-2.182v-2.909h-2.909c-2.181-3.636,3.637-7.273-2.909-7.273-3.873-6.317,1.455-6.545.728-11.635,0-1.078,1.2-2.556,3.005-3.544a5.13,5.13,0,0,0,3.241-.242c1.176-.462,1.5-1.108,2.879-1.274,1.509-.182,3.264,1.228,4.467.982,1.72-.352,1.422-2.106,2.9-2.876,1.258-.656,2.239-.058,3.548-.041,2.872.034,4.463.563,7.1.557.966,0,2.524.368,3.549.086,1.331-.364,1.889-1.556,3.154-2.222,2.53,3.257,6.373-2.4,9.354-1.661,1.9.474,1.706,2.03,3.946,1.979,1.105-.025,1.9-1.551,3.238-1.332,1.305.215.856,1.535,1.914,1.9,2.787.953,6.016.087,8.628,1.018a42.717,42.717,0,0,0,3.968,1.588,23.664,23.664,0,0,1,3.791.8c.575.318.8,1.735,1.328,2.145.391.3,2.1.709,2.3,1,.745,1.106,1.251,3.421,1.7,4.638.021.057.5,1.7.537,1.747a24.877,24.877,0,0,1,1.729,1.881c.41,1.049.081,2.609.52,3.621.63,1.452,2.293,2.057,3.214,3.28,1.831,2.43.547,1.632.663,4.46.138,3.376.655,5.219,1,8.388.355,3.288-.516,8.633-3.885,9.677l-4.516-.322c-.2,2.675-4.76.383-6.733.694.166.731-.259,1.759-.09,2.484a5.723,5.723,0,0,1-2.492-.009,7.944,7.944,0,0,1-.4-3.443c-4.086.341-3.183-1.435-3.628-4.539-2.76,2.383-2.209-.847-4.08-2-1,1.375-.363,2.857-1.6,3.917-1.323,1.133-3.69-.968-2.966,2.518-2.11.861-6.779-.492-6.444,3.25-2.3.542-1.85-1.226-3.179-1.9-1.64-.838-2.468-.91-4.435-.025-.125-.809-.744-1.321-.773-2.184a8.1,8.1,0,0,0-3.051.247c-.7-4.224-4.673-2.568-8.128-2.231-1.337.13-3.313.921-4.578.66-1.523-.314-.674-1.6-2.564-1.635-.891-.016-1.321.477-1.939.86C-27.174,468.067-30.094,465.323-31.065,460.954Z" fill="#373a5b"/>
            <path id="Path_147" data-name="Path 147" d="M37.124,474.711c0-.728-2.909-.728-3.636-2.183V469.62H30.579c-2.181-3.637,3.636-7.273-2.91-7.273-3.873-6.317,1.455-6.545.729-11.635,0-1.078,1.2-2.556,3-3.544a5.127,5.127,0,0,0,3.24-.242c1.177-.462,1.5-1.108,2.88-1.275,1.508-.181,3.263,1.229,4.467.983,1.719-.352,1.422-2.107,2.9-2.876,1.257-.656,2.239-.058,3.548-.041,2.871.034,4.462.563,7.095.556.967,0,2.524.369,3.549.087,1.332-.364,1.889-1.556,3.154-2.222,2.531,3.257,6.373-2.406,9.354-1.661,1.9.474,1.706,2.03,3.946,1.979,1.105-.025,1.9-1.551,3.238-1.332,1.3.215.856,1.535,1.914,1.9,2.788.953,6.017.086,8.629,1.018,1.529.546,2.385,1.174,3.967,1.588a23.645,23.645,0,0,1,3.791.8c.575.318.8,1.735,1.329,2.144.391.3,2.1.71,2.3,1,.745,1.106,1.25,3.421,1.7,4.638.021.057.5,1.7.536,1.747a25.1,25.1,0,0,1,1.73,1.881c.409,1.049.081,2.609.519,3.621.63,1.452,2.294,2.057,3.214,3.28,1.831,2.43.548,1.632.664,4.46.138,3.376.655,5.219,1,8.388.356,3.288-.516,8.633-3.885,9.677l-4.516-.322c-.2,2.675-4.759.383-6.733.694.166.731-.259,1.759-.09,2.484a5.723,5.723,0,0,1-2.492-.009,7.959,7.959,0,0,1-.4-3.443c-4.086.341-3.183-1.436-3.627-4.539-2.76,2.383-2.209-.847-4.08-2-1,1.375-.363,2.857-1.6,3.917-1.323,1.133-3.691-.968-2.967,2.518-2.11.861-6.778-.493-6.444,3.25-2.3.541-1.849-1.226-3.178-1.9-1.64-.838-2.468-.91-4.435-.025-.125-.809-.744-1.321-.773-2.184a8.076,8.076,0,0,0-3.051.247c-.7-4.224-4.673-2.568-8.128-2.231-1.337.13-3.313.921-4.578.66-1.523-.314-.674-1.6-2.564-1.635-.891-.016-1.322.477-1.939.86C41.016,481.824,38.1,479.08,37.124,474.711Z" fill="#373a5b"/>
            <path id="Path_148" data-name="Path 148" d="M1.6,393.382c0-.728-2.909-.728-3.636-2.183v-2.908H-4.944c-2.182-3.637,3.636-7.273-2.91-7.273-3.873-6.317,1.456-6.545.728-11.635,0-1.078,1.2-2.556,3.006-3.544A5.127,5.127,0,0,0-.88,365.6C.3,365.135.622,364.489,2,364.322c1.509-.181,3.264,1.229,4.468.983,1.719-.352,1.422-2.107,2.9-2.876,1.257-.657,2.239-.058,3.548-.041,2.871.034,4.462.563,7.1.556.967,0,2.524.369,3.549.087,1.332-.364,1.889-1.556,3.154-2.222,2.531,3.256,6.373-2.406,9.355-1.662,1.9.475,1.705,2.031,3.945,1.98,1.105-.025,1.9-1.551,3.238-1.332,1.305.215.856,1.535,1.915,1.9,2.787.954,6.016.087,8.628,1.019,1.529.546,2.385,1.174,3.967,1.588a23.641,23.641,0,0,1,3.791.8c.575.318.8,1.735,1.329,2.144.391.3,2.1.71,2.3,1,.745,1.106,1.25,3.421,1.7,4.638.021.057.5,1.7.536,1.747a24.9,24.9,0,0,1,1.73,1.881c.409,1.049.081,2.609.52,3.621.629,1.452,2.293,2.056,3.213,3.28,1.831,2.43.548,1.632.664,4.46.138,3.376.655,5.219,1,8.388.356,3.288-.515,8.633-3.885,9.677l-4.516-.322c-.195,2.675-4.759.383-6.733.694.166.731-.259,1.758-.089,2.484a5.728,5.728,0,0,1-2.493-.009,7.96,7.96,0,0,1-.4-3.443c-4.086.341-3.183-1.436-3.627-4.539-2.76,2.383-2.209-.847-4.08-2-1,1.375-.363,2.857-1.6,3.917-1.323,1.133-3.691-.968-2.967,2.517-2.11.862-6.778-.492-6.444,3.25-2.3.542-1.849-1.225-3.178-1.9-1.64-.838-2.468-.91-4.435-.025-.125-.809-.744-1.322-.773-2.184a8.057,8.057,0,0,0-3.051.247c-.7-4.224-4.673-2.568-8.128-2.231-1.337.13-3.313.921-4.578.66-1.523-.315-.674-1.6-2.564-1.635-.891-.016-1.322.477-1.939.859C5.493,400.495,2.572,397.751,1.6,393.382Z" fill="#373a5b"/>
            <path id="Path_149" data-name="Path 149" d="M53.44,360.467c-6.42,3.548-27.774,21.29-21.681,32.258s6.674,35.54,5.924,56.346c-.342,9.47.518,37.831,1.2,57.462H20.539c-.106-6.62-.922-15.729-.276-22.035.883-8.622-2.96-6.711.967-25.886s2.984-55.887-.725-65.887a44.93,44.93,0,0,1-1.129-26.613c1.774-5.8,3.226-10.8,2.742-12.742s-8.871-17.449-8.871-17.449l2.9.676s6.452,13.064,9.032,13.467c.807-3.47,4.516-10.242,4.516-10.242s5.806.162,5.484,4.2c-5,3.87-8.225,20.483-8.225,20.483s2.1,7.419,6.773,4.354c5.162-7.257,19.678-11.451,20.807-12.741,4.032-4.839,21.129-20,21.129-20s3.386-1.13.161,2.1c-5.161,4.356-18.549,17.581-18.549,17.581a62.717,62.717,0,0,1,7.581-1.56c4.194-.593,16.613-4.407,19.032-5.7s4.355-4.839,4.355-4.839-.645,2.58-3.87,6.371C77.279,355.465,59.859,356.919,53.44,360.467Z" fill="#373a5b"/>
            <path id="Path_150" data-name="Path 150" d="M21.8,490.039s-.645-14.677-5.161-24.354S2.009,433.75-6.378,432.137s-26.5-14.664-27.741-41.046c2.58-4.194,3.709-1.372,3.709-1.372s-.646,7.58.968,13.547,8.548,15.806,13.871,18.226c-2.581-4.839-.807-26.452-.323-31.773a1.4,1.4,0,0,1,2.419,0s-1.129,8.708-1.613,12.9a31.562,31.562,0,0,0,.323,8.388S-.41,395.685-.248,390.04s2.58-2.9,2.58-2.9.658,6.13-5.316,13.71-9.361,13.064-7.426,19.033,8.064,5.159,11.774,8.063S20.7,448.376,21.669,456.279s8.243,10.211,8.243,10.211Z" fill="#373a5b"/>
            <path id="Path_151" data-name="Path 151" d="M20.989,371.17s-46.21-30.242-45-48.145c-.484-1.935,1.21-1.935,1.21-1.935s-.726,8.951,15,22.741c-2.42-6.774,1.935-22.741,1.935-22.741H-2.1s-3.681,9.6-2.794,16.209S-2.56,348.742,6.957,354.23s15.161,9.359,15.161,9.359Z" fill="#373a5b"/>
          </g>
        </g>
        <path id="Path_152" data-name="Path 152" d="M36.576,461.453S57.7,442.56,60.7,422.667c-2.425-2.182-2.243-3.3-2.243-3.3a34.124,34.124,0,0,1-4.909,15.091c-4.545,7.091-5.636,8.728-5.636,8.728s-3.818-12-2.364-17.545a3.847,3.847,0,0,0-2.636.181s-.36,10.773,1.364,18.181c.454,1.909-9.455,10.273-9.455,10.273Z" fill="#373a5b"/>
      </g>
    </g>
  </g>
</svg>
