<svg xmlns="http://www.w3.org/2000/svg" width="35.087" height="62.39" viewBox="0 0 35.087 62.39">
  <path id="Path_64" data-name="Path 64" d="M576.631,435.309c.117,0,8.012,1.217,10.369.354-2.631-.863-5.067-5.068-5.067-5.068s1.766.647,1.766.3-2.473-2.24-3.3-2.416-3.489-1.013-3.961-3.193c1.3.707,2.134.306,3.667-.578-.826-.058-2.062-2-2.062-2a2.073,2.073,0,0,0,2.062-.648c-2.77-1.355-3.535-5.6-5.6-7.777s-1.885-2.947-1.179-3.182a25.172,25.172,0,0,1,4.242,0c-.177-2.239-3-3.534-4.064-4.713,1.118-.117,2.945,1.119,2.945,1.119a7.342,7.342,0,0,0-1.351-3.417c-1.056-1.119-1.2-2.876-1.949-3.151s-.667-1.768-.667-1.768-.491.166.649-.108,1.884.59,1.963.471-.865-1.1-1.493-1.3-.9-1.492-1.335-2.12-.8-1.515-.405-1.594a10.211,10.211,0,0,1,3.233,1.044,11.634,11.634,0,0,0-3.005-3.584c-.556-.393-.922-2.111-.53-3.6s-.942-.313-1.336-2.592c-.309-1.8-.447-3.774-.564-4.557,0,0-.085-.407-.192-.392-.023,0,.045.094-.015.094s.009-.1-.014-.094a5.877,5.877,0,0,0-.281,1.158c-.116.784-.484,2.034-.795,3.829-.392,2.28-1.41,1.062-1.016,2.554a4.081,4.081,0,0,1-.795,3.633,11.444,11.444,0,0,0-2.74,3.555,7.68,7.68,0,0,1,2.946-.727c.393.079.314.649-.118,1.277s-.708,1.925-1.335,2.12-1.571,1.179-1.493,1.3.824-.745,1.963-.471.658.255.658.255.081,1.493-.667,1.768-.9,1.885-1.959,3a7.349,7.349,0,0,0-1.35,3.417s1.827-1.236,2.945-1.119c-1.06,1.179-3.887,2.474-4.064,4.713a25.172,25.172,0,0,1,4.242,0c.707.235.884,1-1.179,3.182s-2.827,6.422-5.6,7.777a2.073,2.073,0,0,0,2.062.648s-1.236,1.945-2.062,2c1.533.884,2.563,1,3.86.295-.473,2.18-3.329,3.3-4.154,3.476s-3.3,2.062-3.3,2.416,1.766-.3,1.766-.3-2.436,4.2-5.067,5.068c2.357.863,10.252-.354,10.369-.354s-7.423,5.538-9.307,6.834c1.968.676,7.5.934,12.345,1.029l0,.031s1.7.024,4.139.015c2.439.009,4.14-.015,4.14-.015l0-.031c4.841-.1,10.377-.353,12.345-1.029C584.054,440.847,576.513,435.309,576.631,435.309Z" transform="translate(-551.913 -380.83)" fill="#3d3f66"/>
</svg>
