<svg xmlns="http://www.w3.org/2000/svg" width="760" height="246.798" viewBox="0 0 760 246.798">
  <path id="Path_6" data-name="Path 6" d="M752,262.2c-4.194,5.97-6.935,12.115-14.972,15.159-7.218,2.734-7.051,1.158-12.3,7.055-3.7,4.153-5.344,9.364-8.752,13.643-8.234,10.337-20.437,14.555-33.032,13.445-14.8-1.306-18.45.239-29.493,9.806-3.342,2.894-5.768,7.171-10.92,8.82-6.269,2.006-13.895-1.207-20.306.18-10.915,2.361-17.733,9.913-26.88,17.645-11.021,9.316-24.57,14.917-38.123,19.549-14.665,5.011-26.909,53.414-41.578,61-12.387,6.4-25.355,12.87-38.563,14.5-7.017.866-11.747-2.694-18.329-3.023-6.854-.343-9.989,2.5-15.781,5.326-24.7,12.027-53.133,21.438-78.024,5.147-11.247-7.361-14.84-18.939-29.982-23.47-12.972-3.881-24.138,1.783-35.767-1.179-3.591-.915-7.016-3.978-13.194-3.876-8.025.133-10.457.64-19.831-2.726-5.926-2.128-11.218-2.781-15.93-6.625-6.446-5.258-3.529-7.942-13.244-8.6-10.139-.684-18.973,3.549-27.749-2.176-5.446-3.554-3.037-7.154-11.271-7.8-6-.471-9.715,3.911-14.811,5.238-11.018,2.868-24.255,3.855-31.66-4.488-3.6-4.057-4.892-11.49-9.313-14.845-5.826-4.421-12.021-4.132-18.625-10.067-11.018-9.9-12.269-24.957-28.61-27.616-3.913-.636-8.021.281-11.964-.226-7.375-.947-10.119-3.674-16.8-6.548s-15.761-3.9-22.9-6.181c-8.326-2.666-13.036-6.231-19.674-10.442C19.249,316.053,4.735,308.2-5,306.283V509H755Z" transform="translate(5 -262.202)" fill="#3d3f66"/>
</svg>
