<svg xmlns="http://www.w3.org/2000/svg" width="826.364" height="176.225" viewBox="0 0 826.364 176.225">
  <path id="Path_7" data-name="Path 7" d="M-36.423,258.831l60.357-20.337a37.735,37.735,0,0,0,4.608-1.9L46.3,227.861a37.748,37.748,0,0,1,16.665-3.877h9.614A37.756,37.756,0,0,1,96.463,232.5l60.264,49.229,85.026,64a37.757,37.757,0,0,0,16.926,7.145l58.456,9.057a37.807,37.807,0,0,0,5.781.445h61.341a37.762,37.762,0,0,0,17.748-4.431l98.655-52.538q1.547-.824,3.164-1.5l28.359-11.876a37.768,37.768,0,0,1,18.4-2.737l31.471,3.2a37.749,37.749,0,0,1,12.874,3.7l50.47,24.875a37.756,37.756,0,0,0,27.171,2.406l18.517-5.349a37.758,37.758,0,0,1,24.11,1.062l8.8,3.407a37.757,37.757,0,0,0,20.908,1.838l45.035-8.846v84.628H1.334a37.758,37.758,0,0,1-37.757-37.758Z" transform="translate(36.423 -223.984)" fill="#9e81a8"/>
</svg>
