<svg xmlns="http://www.w3.org/2000/svg" width="993.336" height="205.462" viewBox="0 0 993.336 205.462">
  <path id="Path_4" data-name="Path 4" d="M-118.529,189.418-15.3,145.087a23.205,23.205,0,0,1,16.563-.175l102.165,40.554a23.091,23.091,0,0,0,16.963-.353l11.357-5.256A23.041,23.041,0,0,1,149,179.622l50.937,21.338a23.247,23.247,0,0,0,16.376.14l10.423-4.1a23.271,23.271,0,0,1,16.272.1l9.316,3.828a23.207,23.207,0,0,0,16.615-.042L351.518,166.3a23.119,23.119,0,0,1,16.951.1l18.067,7.9c5.588,2.445,13.522,2.161,18.519-.663h0c5.021-2.838,13-3.109,18.589-.633l41,18.171a22.987,22.987,0,0,0,17.552-.1l21.778-10.069a23.112,23.112,0,0,1,16.775-.423l13.636,5.232a23.312,23.312,0,0,0,16.062-.115l102.789-41.618a23.443,23.443,0,0,1,13.286-.94l87.364,19.292a23.332,23.332,0,0,0,13.532-1.042l46.041-19.512a23.121,23.121,0,0,1,16.963.051l33.344,14.443c3.465,1.5,5.5,3.828,5.5,6.295V337.828c0,4.381-6.285,7.932-14.038,7.932H-110.035c-7.752,0-14.037-3.551-14.037-7.932v-142.1C-124.072,193.254-122.021,190.918-118.529,189.418Z" transform="translate(124.072 -140.298)" fill="#edae9b"/>
</svg>
