<svg xmlns="http://www.w3.org/2000/svg" width="790.431" height="171.778" viewBox="0 0 790.431 171.778">
  <path id="Path_6" data-name="Path 6" d="M-26.17,348.007A38.539,38.539,0,0,1,6.9,309.858l140.059-50.88a36.811,36.811,0,0,1,22.488-.853l90.315,25.253c.694-.131,61.31-16.748,62.01-16.84l65.973-16.663a38.62,38.62,0,0,1,5.041-.331h17.134a38.546,38.546,0,0,1,10.805,1.546L516.289,279a38.552,38.552,0,0,0,21.062.156L601,261.586a38.5,38.5,0,0,0,8.1-3.262L666.378,227.3a38.537,38.537,0,0,1,18.355-4.652h4.749a38.516,38.516,0,0,0,13.17-2.321l8.909-3.239a38.537,38.537,0,0,1,32.113,2.656l20.587,11.619V348.007a38.539,38.539,0,0,1-38.539,38.539H12.369A38.54,38.54,0,0,1-26.17,348.007Z" transform="translate(26.17 -214.768)" fill="#af8cad"/>
</svg>
