<svg xmlns="http://www.w3.org/2000/svg" width="818.987" height="190.812" viewBox="0 0 818.987 190.812">
  <path id="Path_8" data-name="Path 8" d="M-59.242,389.889l115.55-36.232A18.345,18.345,0,0,0,59.89,352.1l41.077-23.358a18.363,18.363,0,0,1,16.376-.886l49.47,21.438a18.35,18.35,0,0,0,3.784,1.173l199.725,38.974a18.336,18.336,0,0,0,4.647.3l76.593-4.727a18.365,18.365,0,0,0,3.322-.513l109.13-27.283q.687-.171,1.385-.29l52.782-8.946a18.353,18.353,0,0,0,9.184-4.428l69.055-61.881a18.367,18.367,0,0,1,8.365-4.27l54.96-11.908V456.31H-59.242Z" transform="translate(59.242 -265.498)" fill="#84617e"/>
</svg>
