<svg xmlns="http://www.w3.org/2000/svg" width="783.575" height="252.496" viewBox="0 0 783.575 252.496">
  <path id="Path_5" data-name="Path 5" d="M-26.17,220.463l63.2-28.009a53.7,53.7,0,0,1,35.812-2.734L150.211,210.7a53.708,53.708,0,0,0,24.884.769l6.334-1.3a53.7,53.7,0,0,1,24.413.643l88.6,23.165a53.688,53.688,0,0,0,29.6-.7l54.982-17.183a53.7,53.7,0,0,1,30.771-.379h0a53.7,53.7,0,0,0,32.895-1.092l7.3-2.619a53.7,53.7,0,0,1,24.979-2.721l147.586,18.942a53.7,53.7,0,0,0,21.512-1.608l113.341-32.2V386.644a53.7,53.7,0,0,1-53.7,53.7H27.53a53.7,53.7,0,0,1-53.7-53.7Z" transform="translate(26.17 -187.848)" fill="#e89aa3"/>
</svg>
