<svg xmlns="http://www.w3.org/2000/svg" width="426.174" height="491.983" viewBox="0 0 426.174 491.983">
  <g id="Group_82" data-name="Group 82" transform="translate(-417.3 -18.35)">
    <g id="Group_78" data-name="Group 78">
      <g id="Group_77" data-name="Group 77">
        <path id="Path_125" data-name="Path 125" d="M585.861,208.459c13.268,7.333,57.4,44,44.807,66.668s-13.792,73.449-12.241,116.451c.706,19.569-1.074,78.184-2.482,118.755h37.91c.221-13.681,1.906-32.509.572-45.539-1.825-17.821,6.117-13.869-2-53.5s-6.166-115.5,1.5-136.167,6-43,2.333-55-6.667-22.333-5.667-26.333,18.334-36.062,18.334-36.062l-6,1.4s-13.333,27-18.666,27.831c-1.667-7.17-9.333-21.164-9.333-21.164s-12,.333-11.334,8.667c10.333,8,17,42.333,17,42.333s-4.333,15.333-14,9c-10.667-15-40.666-23.667-43-26.333-8.334-10-43.666-41.334-43.666-41.334s-7-2.333-.334,4.334c10.666,9,38.334,36.333,38.334,36.333a129.759,129.759,0,0,0-15.667-3.225c-8.667-1.224-34.333-9.108-39.333-11.775s-9-10-9-10,1.333,5.334,8,13.165C536.594,198.122,572.594,201.127,585.861,208.459Z" fill="#2d3151"/>
        <path id="Path_126" data-name="Path 126" d="M651.26,476.245s1.334-30.333,10.667-50.333,30.225-66,47.558-69.334,54.765-30.306,57.333-84.828c-5.333-8.668-7.666-2.838-7.666-2.838s1.334,15.666-2,28-17.667,32.666-28.667,37.666c5.333-10,1.667-54.666.667-65.666-2.667-3.334-5,0-5,0s2.333,18,3.333,26.666a65.14,65.14,0,0,1-.667,17.334s-29.667-31.667-30-43.334-5.333-6-5.333-6-1.36,12.668,10.987,28.334,19.346,27,15.346,39.334-16.666,10.665-24.333,16.665-39.964,42.23-41.964,58.564-17.036,21.1-17.036,21.1Z" fill="#2d3151"/>
        <path id="Path_127" data-name="Path 127" d="M652.927,230.578s95.5-62.5,93-99.5c1-4-2.5-4-2.5-4s1.5,18.5-31,47c5-14-4-47-4-47h-7.776s7.609,19.834,5.776,33.5-4.833,23.649-24.5,34.991-31.333,19.342-31.333,19.342Z" fill="#2d3151"/>
      </g>
    </g>
    <g id="Group_80" data-name="Group 80">
      <g id="Group_79" data-name="Group 79">
        <path id="Path_128" data-name="Path 128" d="M557.56,391.75c23.125,19.25,28.3,61.587,26.611,93.251-.307,5.744-.849,5.221-.243,25.332h21.217c-1.876-27.538-.111-60.829,3.967-71.822,5.369-14.473,4.2-30.113,1.634-38.516s-4.669-15.64-3.969-18.44S619.616,356.3,619.616,356.3l-4.2.976s-9.337,18.908-13.071,19.49c-1.167-5.022-6.536-14.821-6.536-14.821s-8.4.234-7.937,6.07c7.235,5.6,11.9,29.645,11.9,29.645S598.2,447.439,591.428,443c-9.534-40-29.935-55.613-31.57-57.481-5.836-7-30.578-28.945-30.578-28.945s-4.9-1.634-.234,3.035c7.47,6.3,26.845,25.444,26.845,25.444A90.78,90.78,0,0,0,544.92,382.8c-6.07-.858-24.043-6.379-27.545-8.246s-6.3-7-6.3-7,.934,3.735,5.6,9.219C526.945,384.585,549.4,384.958,557.56,391.75Z" fill="#2d3151"/>
        <path id="Path_129" data-name="Path 129" d="M608.411,407.314s66.877-43.768,65.127-69.678c.7-2.8-1.751-2.8-1.751-2.8s1.05,12.955-21.709,32.914c3.5-9.8-2.8-32.914-2.8-32.914h-5.445s5.328,13.89,4.045,23.46-3.385,16.561-17.157,24.5-21.943,13.544-21.943,13.544Z" fill="#2d3151"/>
      </g>
    </g>
    <g id="Group_81" data-name="Group 81">
      <path id="Path_130" data-name="Path 130" d="M678.3,449.862c8.408,6.278,13.2,12.713,12.85,19.525s1.567,9.02-1.511,13.113c-2.287,3.041-1.8,17.432-3.181,27.833H701.23C702.7,499.578,697,491.522,699.405,486c6.75-15.5,13.857-27,9.867-51.343-3.89-3.678-5.3-4.206-5.3-4.206s2.813,7.777,2.8,14.5-3.314,17.835-8.221,21.874c1.346-5.807-9.324-34.223-11.332-39.677a23.488,23.488,0,0,0-3.5-2.125s5.417,19,7.106,23.27a34.219,34.219,0,0,1,2.025,8.9s-18.7-12.022-20.458-17.9-3.529-2.322-3.529-2.322S669.9,443.585,678.3,449.862Z" fill="#2d3151"/>
    </g>
    <path id="Path_131" data-name="Path 131" d="M756,41c-1.429-2.724-4.9-10.318-8.862-6.8-.749-2.857-.625-1.537-3.136-2.13-2.469-2.033-5.917-4.842-9.516-3.318-1.282-4.057-10.25-4.925-12.47-1.35a5.084,5.084,0,0,0-7.184-.5c-1.965-1.845-3.081-2.4-5.365-.616-2.044-6.183-13.783-8.557-18.8-6.616-4.565,1.767-5.917,1.832-10.683,2.651-2.925.5-8.15,2.125-10,5.78-1.649-2.427-4.01-3.011-5.989-1.182-3.035-2.329-9.086-10.906-12.8-7.35-3.129-2-7.188-1.657-8.648,1.987-2.654.24-5.123,1.652-6,4.065-2.611-1.78-6.315-2.163-8,.634-4.147-2.153-7.031,1.472-8,5.316a7.563,7.563,0,0,0-4.715,3.865c-2.343-2.374-5.429-2.439-6.616.782-2.645-1.045-4.992-.4-6.019,2.536-3.95-1.611-6.01,1.972-5.966,5.532-2.32-2.044-5.216-2.365-7.071-.016-2.422-3.144-7.03-2.611-6.265,2-2.639-1.165-5.807-2.217-7.864-.015-2.864-1.418-6.528-2.427-8.185.666-2.539-.554-3.328-.118-4.666,2.517-2.985-3.977-15.537-2.188-14.616,3.462-3.892-1.62-6.526,2.191-4.814,6.119a5.9,5.9,0,0,0-3.153,7.849c-2.887-.592-4.631.45-4.7,3.4-3.42-2.4-8.457-2.723-8.036,2.669-3.267-2.431-7.278-1.135-7.3,3.3-4.2-.738-8.07,1.676-8.657,6.022-3.619-1.338-9.084-3.668-12.042-.022-2.718-1.7-5.91-3.022-8,0-5.656-2.32-12.586-.559-12.632,6.7-6.223-1.293-10.043,4.954-6.781,9.965-4.738-.6-8.51,6.148-3.184,8.234-1.666,2.752-3.083,6.789-.818,9.248-7.084-1.758-6.392,3.425-6.551,8.505-3.647,1.2-4.511,5.773-3.788,9.334.39.08.781.157,1.172.227-2.2,2.554-8.234,6.044-4.818,9.934-5.677-2.225-14.867,3.859-12.529,9.955a7.116,7.116,0,0,0-3.181,5.378c.692.11,1.594.618,2.494.718-1.07,3.094-2.292,14.29-.016,15.316-.751,2.576-1.827,5.071-.1,6.633-6.152-2.89-11.513,3.275-11.9,9.185-4.775-.609-10.828,3.835-9.5,8.8-2.947,1.57-3.633,6.9.281,6.879.8,3.511,4.61,5,7.335,2.669,1.785,3.541,5.6,9.411,9.15,3.8,1.949,4.8,6.125,3.38,8.166-.454,3.442,4.765,9.2,2.361,10.166-2.882.534,1.281,2.421,2.215,3.165,3.2.463-.607,1.024-1.134,1.5-1.68,1.517,3.765,5.857,7.729,8.7,2.63,1.084,3.141,3.2,2.6,5.154.518,5.09,7.031,9.115,8.362,13.784.667,2.784,5.606,6.985,1.221,6.83-3.149,1.044,1.779,2.864,2.108,3.9,3.013.643-2.042,1.528-3.677,1.582-5.83,5.853,3.674,7.929,1.061,12.4-2.7,3.724,8.065,14.616-1.3,14.927-6.621,2.368-.491,3.567-2.821,4.056-5.379,1.052,1.5,3.107,2.076,4.383,3.21,1.153-3.577.692-7.329.846-11.014,3.8,1.543,6.863-.023,6.567-4.015,2.351,4.652,7.423,6.116,8.9-.215,2.055,7.262,7.255,2.126,9.933-1.783,6.53,8.543,10.563-3.058,11.3-8.852,2.724,1.506,2.364,2.013,5.133.833-.651,6.854,5.316,9.715,8.648,2.636a8.712,8.712,0,0,0,1.93,6.629,6.8,6.8,0,0,0,6.042-2.593c.14,3.584,2.412,10.495,6.146,5.177.731.95,3.109,1.907,3.883,2.8,1.61-1.536,3.3-3.119,4.925-4.609,3.074,3.3,6.58,1,8.71-2.044,2.771,6.252,7.774,2.278,9.863-2.026,3.473,5.26,7.227.389,11.16-.069,1.82-.211,3.323,2.877,6.16,1.259,1.482-.845,2.595-5.474,3.269-6.83,5.828.6,8.423,6.366,12.832-1.132,3.869,2.965,6.236-.674,8.533-3.5,5.453,5.664,9.791-6.666,9.286-11.052,2.593,2.124,5.824-.853,6.712-2.3-.267,1.27.265,2.771.1,3.995,2.764-.015,4.382-2.379,5.764-4.511,0,.8.2,1.712.236,2.513,3.553.768,5.716-2.119,7.718-4.5,3.044,4.505,6.062-1.411,6.98-4.647,2.786.129,2.26.1,5.085-1.22.05,4.61,3.839,5.641,6.684,2.018-.764,6.52,6.081,3.026,8.63.519-.967,4.71,3.01,5.971,5.986,2.666.355,5.879,6.983,4.417,9.515.832-.472,8.685,7.213,2.457,10,1.768.74-.182,1.547-1.6,2.667-1.9.4-.107,1.593,2.573,2.1,2.446a11.583,11.583,0,0,0,7.4-5.165c3.17,5.808,6.991-3.716,8.954-6.2,2.272-2.87,7.652-6.446,8.181-9.188Z" fill="#2d3151"/>
    <path id="Path_132" data-name="Path 132" d="M706.061,290.987a6.862,6.862,0,0,0-4.412-2.612c.42-.217.835-.271,1.277-.462-.011-5.056-11.074-4.869-13.826-2.963-.295-2.889-3.385-3.3-5.949-2.925.595-.155,1.172-.459,1.784-.624-.478-2.4-2.926-3.923-5.385-4.514,4.181-4.155-3.566-7.063-6.1-6.352,2.313-4.007-4.147-2.882-5.866-3.5-1.388-.5-4.75-5.954-6.2.413-3.721-4.528-20.185-.73-17.076,6.1-3.226-1.193-10.279-.969-10.8,3.313-1.406-5.5-7.024-1.432-9.44.6.581-5.933-8-2.839-10-.525,2.522-5.653-7.183-4.258-10.112-3.485-1.71-3.12-8.1-4.726-9.971-.934-1.915-2.352-6.629-1.183-7.892,1.833-.2-4.472-6.952-3.329-7.586,0-.742-4.445-8.523-3.5-8.125,1.109-.666-5.145-6.286-3.538-8.278,0-1.153-3.457-4.872-1.646-6.135.891.3-3.012-2.781-3.791-4.612-1.912-2.415-2.495-7.309-1.758-6.366,2.646-1.274-2.614-6.2.026-5.463,3.754-.248-.18-.779-.7-1.037-.914a7.752,7.752,0,0,0-2.973,6.424c-.946-2.12-3.269-2.36-5.448-1.774.233.555.114,1.528.458,2.262-1.453-2.5-5.24-1.841-7.96-1.912.242-4.795-9.325-2-10.03,2.281.1-5.393-8.154-3.437-6,.633a3.416,3.416,0,0,0-6.045,1.01c-.358-3.249-3.925-3.051-5.011-.337a3.088,3.088,0,0,0-4.6,1.424c-2.916-2.176-7.278-.543-6.962,3.489-3.315-.32-3.784,2.735-2.086,5-3.659-.188-4.361,3.845-1.4,5.488-2.515-1.11-3.888,1.759-2.108,4-2.643,1.258-4.019,4.946-1.528,7.137-2.619-1.614-6.2,1.425-3.986,4.011a3.546,3.546,0,0,0-5.388,3.864c-4.137-.7-6.495,2.564-6,6.5-4.047-.141-4.184,3.721-2.113,6.474-4,1.637-3.169,5.972,1.112,6.174a4.024,4.024,0,0,0,3.424,4.411,11.439,11.439,0,0,1-1.772.6c.625,1.391.55,2.461,2.26,3.452-3.14.383-1.779,3.965-.4,5.861-1.423,1.372-.578,1.917-.585,3.625,0-.959,1.234,4.443.636,3.086,1.082,2.458-1.086.962,2.027,2.9.762.475,3.42,0,4.41.063-.42,4.8,6.722,6.429,8.55,2.611,1.5,1.3,3.565,1.71,4.948.889-2.321,3.79,4.224,6.491,7.428,6.415-.261.12-1.032.4-1.291.486.118,2.325,1.835,4.443,2.89,6.549-2.907,1.818-1.224,5.877,1.623,7.012.515-.1-1.112.494-1.486.55-.294,2.184,1.274,3.808,3.363,4.538-.873,2.752,1.874,5.4,4.976,4.949.378,3.995,5.529,2.577,6.6-.421-.792,4.006,4.489,4.655,5.451,1.506a3.042,3.042,0,0,0,5.01-1.484c1.365,3.13,4.789,1.489,5.6-1.1,3.065.356,7.3-.437,6.891-4.4,3.3,2.917,6.4-2.008,6.6-5.1.817.166,2.021-.308,2.839-.15.708-3.243.748-6.69,1.661-9.848,8.293.066,13.756,19.92,21.789,9.1,2.337,1.637,6.109-.747,6.748-3.623,3.321,1.116,7.994.8,6.989-4,3.05,4.633,6.734-.793,8.011-4,.357.41,1.4.757,1.852,1.522,2.644-1.24,4.881-3.005,4.926-5.924.046.556.147,1.2.186,1.784a5.29,5.29,0,0,0,4.05-2.86c4.287,1.824,6.629-1.654,7.375-5.575L633,355c.732-.322,1.3.069,2-.55,2.293,2.53,6.821,5.932,8.893,1.213,1.526,2.139,4.669,1.666,6.473-.1,2.424,2.285,5.207-.674,6.634-3.009,3.479,3.356,7.711,1.288,10.138-2.5,2.311,4.523,13.289-1.819,15-5.514,1.176,3.19,3.321,1.393,4.252-.974.3.731.777,1.188,1.113,1.875,3.256-1.507,9.328-6.292,9.073-10.365,3.57-.085,7.009-7.672,3.975-9.961,3.045-1.017,1.949-3.87,0-5.115.638-.412,1.067-1.171,1.521-1.511-.6-.185-1.73-1.367-2.5-1.614a4.993,4.993,0,0,0-1.4-5.9c3.973.723,6.5-8.527,5.387-11.4,3.73-.319,2.492-4.424.89-6.572C705,292.565,705.565,291.357,706.061,290.987Z" fill="#2d3151"/>
    <path id="Path_133" data-name="Path 133" d="M622.946,420.79a3.448,3.448,0,0,0,1.881,1.746c-.228.062-.437.043-.673.09-.532,2.474,4.9,3.556,6.447,2.915-.164,1.445,1.3,1.973,2.6,2.062-.307.013-.622.1-.938.117a3.341,3.341,0,0,0,2.154,2.778c-2.486,1.588.994,3.832,2.308,3.753-1.556,1.714,1.721,1.85,2.5,2.334.626.391,1.691,3.415,3.075.455,1.339,2.609,9.792,2.5,9-1.17,1.45.926,4.923,1.565,5.632-.473.1,2.837,3.282,1.446,4.68.707-.915,2.84,3.609,2.238,4.833,1.318-1.833,2.5,3.061,2.845,4.575,2.777.506,1.707,3.459,3.17,4.776,1.516.687,1.352,3.116,1.282,4.054-.06-.379,2.208,3.046,2.367,3.71.8-.11,2.253,3.8,2.617,4.091.32-.221,2.587,2.7,2.4,4.046.879.2,1.813,2.208,1.322,3.1.216-.467,1.441.956,2.148,2.051,1.423.917,1.476,3.389,1.636,3.394-.618.346,1.414,3.038.646,3.07-1.256.1.114.307.426.41.556a3.88,3.88,0,0,0,2.136-2.825c.237,1.138,1.347,1.5,2.474,1.447a11.508,11.508,0,0,0,.018-1.156c.444,1.376,2.366,1.456,3.688,1.781-.627,2.318,4.348,1.966,5.147-.052-.62,2.627,3.622,2.546,3,.327a1.708,1.708,0,0,0,3.062.147c-.17,1.627,1.6,1.909,2.414.7a1.546,1.546,0,0,0,2.4-.208,2.1,2.1,0,0,0,3.774-.968c1.588.508,2.141-.936,1.551-2.223,1.769.48,2.54-1.418,1.269-2.536,1.112.811,2.088-.447,1.455-1.731a2.193,2.193,0,0,0,1.505-3.328c1.109,1.067,3.183-.039,2.373-1.538a1.775,1.775,0,0,0,3.045-1.319c1.951.78,3.449-.563,3.624-2.541,1.964.5,2.441-1.376,1.72-2.942,2.131-.375,2.185-2.584.112-3.137a2.013,2.013,0,0,0-1.206-2.52,5.742,5.742,0,0,1,.93-.106c-.158-.747-.008-1.262-.738-1.928,1.575.146,1.29-1.751.816-2.823.843-.52.487-.877.671-1.712-.1.47-.132-2.3.017-1.576-.268-1.316.633-.355-.683-1.633-.323-.313-1.672-.363-2.15-.5.714-2.3-2.6-3.856-3.9-2.183a2.22,2.22,0,0,0-2.325-.961c1.538-1.607-1.377-3.623-2.95-3.925.139-.031.546-.085.682-.1.189-1.15-.427-2.368-.719-3.51,1.615-.579,1.223-2.743-.05-3.6-.261-.007.6-.124.786-.111a2.176,2.176,0,0,0-1.163-2.577,2.092,2.092,0,0,0-1.908-2.948c.239-1.993-2.431-1.847-3.272-.494a1.415,1.415,0,0,0-2.5-1.315,1.523,1.523,0,0,0-2.608.2c-.335-1.676-2.183-1.236-2.854-.056-1.462-.5-3.617-.561-3.837,1.419-1.3-1.775-3.343.3-3.768,1.794-.381-.168-1.02-.063-1.4-.228-.69,1.511-1.076,3.192-1.858,4.639-4.047-.912-4.612-11.2-9.689-6.76-.969-1.047-3.065-.283-3.684,1.056-1.505-.9-3.824-1.237-3.841,1.213-1-2.589-3.376-.327-4.342,1.1-.13-.238-.605-.518-.743-.94-1.425.326-2.706.951-3.037,2.374.036-.276.054-.605.1-.893a2.654,2.654,0,0,0-2.284.97c-1.9-1.347-3.416.1-4.2,1.943l-15.294,2.057c-.394.079-.627-.171-1.036.057-.853-1.482-2.706-3.624-4.219-1.537-.52-1.207-2.108-1.31-3.177-.638-.943-1.373-2.618-.222-3.563.77-1.345-2.011-3.634-1.449-5.222.145-.651-2.457-6.691-.52-7.921,1.106-.236-1.686-1.476-1.035-2.183.024-.07-.39-.253-.663-.344-1.035-1.753.391-5.23,2.086-5.537,4.1-1.755-.337-4.242,3.008-3,4.45-1.6.175-1.364,1.685-.543,2.5a9.155,9.155,0,0,0-.9.577c.273.154.7.852,1.05,1.053a2.5,2.5,0,0,0,.058,3.033c-1.866-.776-4.082,3.48-3.844,5-1.857-.24-1.687,1.9-1.133,3.12C623.635,420.132,623.228,420.662,622.946,420.79Z" fill="#2d3151"/>
    <path id="Path_134" data-name="Path 134" d="M734.409,223.583c-1.39-2.363.6-6.815-3.365-7.308,1.046-2.658-1.623-4.911-4.277-4.659,1.5-2.191-3.169-3.351-4.967-3.333-.125-2.326-4.633-2.343-5.9-1.317.527-3.516-5.653-1.889-6.85-.408.757-1.939-1.549-2.977-3.343-2.61.243-2.848-1.358-4.494-2.375-6.616-.648-1.352.655-2.065-.994-3.022-.625-.363-2.557.26-3.29.305.609-4.583-5.407-2.948-6.808-.307-2.653-2.882-6.375.114-7.908,2.6-1.675-2.6-4.864-.842-5.594,1.4-.045-2.7-2.863-2.287-4.358-1-.14-2.944-3.671-2.843-4.632-.425-.8-2.014-3.173-1.857-3.659.1.291-3.22-4.227-1.956-5.091.569-.832-2.1-3.265-1.934-3.408.426a9.049,9.049,0,0,1-.651-1.25c-1.652-.344-3.575.126-4.023,1.915-.63-2.057-4.373-3.076-4.245-.074-.772-3.6-3.587-1.917-5.338-.194-1.571-2.09-1.442-2.826-4-2.638-.5.037-1.95,1.247-2.425,1.356a13.393,13.393,0,0,0-2.243-.348c-3.206.6-4.156,3.689-6.317,4.925-1.04.594-2.821.29-4.031,1.075-.779.5-1.083,1.807-1.735,2.19-2.018,1.186-4.839.9-6.289,3.485-.583,1.041.013,2.222-.587,3.177-.613.976-2.663,1.4-3.386,2.664-.839,1.461-1.048,3.5-1.654,5.052-.943,2.427-2.771,4.838-.784,7.282-3.094,2.087-.755,6.454-.866,9.408-.089,2.368-1.5,4.76,1.275,6.425-2.028,2.615,1.114,4.559,1.709,6.909.991,3.918-1.137,6.629,3.957,7.726-.222,2.475-2.439,4.3-1.372,7.047.624,1.609,2.16,2.239,3.414,3.568,2.239,2.375,2.682,3.963,6.283,4.708-.935,5.617,4.965,3.689,8.333,4.009,1.5,4.292,7.657,1.718,9.966-.016,2.275,5.379,5.6-.031,9.036.342.246,4.04,5.2-.821,6.317-1.673,2.177,3.536,4.2-.939,6.075-1.4.519-.128,2.347.837,3.325.7,1.4-.192,2.889-1.626,3.931-2.324-.045.475.176,1.113.119,1.591a7.012,7.012,0,0,0,5.541-2.257c.4,2.515,3.076,1.89,3.99.1,1.379,2.777,4.121,2.684,6.084.492.556,2.221,2.386,2.608,3.918.741,1.517,4.191,5.527-.2,6.674-2.257.046.649.607,1.3.717,1.865a2.763,2.763,0,0,0,2.759-2.934c2.3,1.078,4.338-.913,4.315-3.339a3.378,3.378,0,0,0,5.217-.592c1.148,4.24,3.225,2.384,5.667.591.612,2.779,3.115,1.965,4.677.675.261,2.206,1.5,1.794,3.057,1.714.778-.04,1.259-1.054,1.647-1.1.663-.074,1.216.4,1.678.357,1.86-.19,5.606.051,4.675-3.008l6.333-34C740.29,227.428,735.658,225.705,734.409,223.583Z" fill="#2d3151"/>
    <path id="Path_135" data-name="Path 135" d="M839.074,251.917c-1.39-2.364.605-6.815-3.365-7.308,1.046-2.658-1.623-4.912-4.277-4.659,1.5-2.191-3.169-3.351-4.967-3.333-.125-2.327-4.633-2.344-5.9-1.318.527-3.515-5.653-1.889-6.85-.407.758-1.939-1.549-2.977-3.343-2.61.243-2.848-1.358-4.494-2.375-6.616-.648-1.352.655-2.066-.994-3.023-.625-.362-2.557.261-3.29.306.609-4.584-5.406-2.949-6.808-.307-2.653-2.883-6.375.113-7.908,2.6-1.675-2.6-4.864-.842-5.594,1.4-.045-2.7-2.863-2.287-4.358-1-.14-2.943-3.671-2.843-4.632-.425-.8-2.013-3.173-1.857-3.659.1.291-3.221-4.227-1.957-5.091.568-.832-2.1-3.265-1.934-3.408.426a8.991,8.991,0,0,1-.651-1.25c-1.652-.344-3.575.126-4.023,1.916-.63-2.057-4.373-3.077-4.245-.075-.772-3.6-3.587-1.917-5.338-.193-1.571-2.091-1.442-2.827-4-2.638-.5.037-1.95,1.247-2.425,1.356a13.378,13.378,0,0,0-2.243-.349c-3.206.6-4.156,3.689-6.317,4.925-1.04.6-2.821.29-4.031,1.075-.779.506-1.083,1.808-1.735,2.191-2.018,1.185-4.839.9-6.289,3.485-.583,1.041.013,2.221-.587,3.176-.613.977-2.663,1.406-3.386,2.664-.839,1.461-1.048,3.495-1.654,5.053-.943,2.427-2.771,4.837-.784,7.282-3.094,2.087-.755,6.454-.866,9.407-.089,2.369-1.5,4.76,1.275,6.426-2.028,2.615,1.114,4.558,1.709,6.908.991,3.918-1.137,6.629,3.957,7.727-.222,2.474-2.438,4.3-1.372,7.046.624,1.61,2.16,2.239,3.414,3.569,2.239,2.375,2.682,3.963,6.283,4.707-.935,5.617,4.965,3.689,8.333,4.01,1.5,4.291,7.657,1.718,9.966-.016,2.275,5.379,5.6-.031,9.036.342.246,4.039,5.2-.823,6.317-1.674,2.177,3.537,4.2-.938,6.075-1.4.519-.127,2.347.837,3.325.705,1.4-.192,2.889-1.627,3.931-2.325-.045.475.176,1.114.119,1.592a7.017,7.017,0,0,0,5.541-2.258c.4,2.516,3.076,1.891,3.99.1,1.379,2.777,4.121,2.684,6.084.492.556,2.221,2.386,2.608,3.918.742,1.517,4.19,5.527-.2,6.674-2.257.046.648.607,1.3.717,1.865a2.763,2.763,0,0,0,2.759-2.934c2.3,1.078,4.338-.914,4.315-3.34a3.378,3.378,0,0,0,5.217-.591c1.148,4.24,3.225,2.384,5.667.591.612,2.778,3.115,1.965,4.677.674.261,2.207,1.5,1.8,3.057,1.715.778-.041,1.259-1.055,1.647-1.1.664-.074,1.216.4,1.678.358,1.861-.19,5.606.051,4.675-3.008L843,259C844.955,255.762,840.323,254.038,839.074,251.917Z" fill="#2d3151"/>
    <path id="Path_136" data-name="Path 136" d="M710.052,496.21c.382-.749.06-1.383.231-2.158-.394-.007-.838-.093-1.233-.1-.192-1.494-.845-2.713-2.333-3,.347-1.594-.261-2.932-1.74-2.732.646-2.235-.98-3.34-2.576-1.91.394-1.838-.518-3.587-2.092-1.742-.125-1.826-1.576-2.055-2.634-.683-.965-1.326-2.857-1.325-3.33.349-.663-4.225-7.562-.984-9.96-.951a2.533,2.533,0,0,0-2.333-3.006c.228-.654-.039-1.916.23-2.558-.736.167-1.466-.13-2.248.166.715-2.171.494-6.087-2.642-5.6-.356-2.247-2.888-4.286-4.415-1.708.706-2.646-2.392-3.627-2.986-1.009-.55-2.141-3.063-4.518-4.343-1.332a1.738,1.738,0,0,0-2.981-.674c-.681-1.5-2.107-2.474-3.074-1.259-.915-1.584-3.323-2.519-4.317-.685-2.406-.609-6.03-.38-5.991,3-2.157.214-3.129,2.822-3.684,4.7-3.043-2.37-4.448.594-7.274,1.116-2.66.491-3.815-1.476-6.949,1.134.361-3.342-1.638-2.318-3.069-3.616-1.24-1.125-2.178-3.568-3.551-4.54a20.922,20.922,0,0,0-3.733-2.49c-1.484-.495-3.524-.381-4.692-1.617-.481.628-1.339.819-1.74,1.665-1.146-.96-2.719-1.477-3.684-.065a3.769,3.769,0,0,0-3.334-1.692,2.846,2.846,0,0,0-3.166-2.007c-.689-1.163-1.629-1.678-2.742-1.243-.7-1.031-1.394-.868-2.276-1.236q-.054.289-.122.577a9.347,9.347,0,0,0-7.217-3.018c.517-2.3.141-3.642-2.31-4.639-.839-.341-2.43.1-3.091-.3-.766-.468-.867-1.365-1.66-1.933-1.381-.988-5.471-5.51-6.98-3.734-1.026-2.528-4.222-1.842-4.077.968-2.2-2.481-4.129.612-3.984,2.974-1.451-.218-2.945,1.167-4.023,1.718-1.639.837-3.574.165-3.659,2.966-2.115-1.835-4.264.863-4.659,2.983-2.459-.484-3.24,1.559-2.975,3.685a2.191,2.191,0,0,0-3.351,2.315c-2.3-.491-3.032.885-2.667,3-1.8-.395-3.532.491-1.741,2-1.058-.93-2.266-.941-2.933.275-1.007-1.453-2.33-2.739-4.216-2.616-.7-1.745-2.521-3.577-4.149-1.982-1.627-2.189-4.384-1.1-4.843,1.348.861-2.207-4.293-3.6-4.784-.017-2.168-.351-6.692-1.171-5.407,2.726-2.877.011-4.655,3.531-2.984,5.673-3.177-.658-5.7,3.931-1.926,4.043-3.706,4.033,1.4,3.621,1.578,6.36a18.9,18.9,0,0,1-1.27,1.516c-3.131.2-6.252-.676-8.281,2.273-.8-3.934-4.8-2.984-7.992-2.881-2.456.079-8.8-1.051-8,2.732-.742-1.411-2.9-.609-3.732,1.151-1.146-1.321-3.126-1.868-3.657.091-.894-.9-1.694-.873-2.892-.923.01.391-.116.857-.117,1.248a3.4,3.4,0,0,0-3.55-.915c0,.389-.1.841-.1,1.231-2.576-.585-3.358,1.779-3.333,4-2.076-.363-2.671,1.578-2.667,3.336-5.756.048-4.888,8.557-8.514,11,7.994.38,16.249-.842,24.232-.283L711,502.334C715.1,500.033,712.338,494.236,710.052,496.21Z" fill="#2d3151"/>
  </g>
</svg>
