<svg xmlns="http://www.w3.org/2000/svg" width="17.421" height="30.974" viewBox="0 0 17.421 30.974">
  <path id="Path_32" data-name="Path 32" d="M472.1,449.389c.059,0,3.978.6,5.149.176-1.307-.428-2.518-2.516-2.518-2.516s.878.321.878.145a4.414,4.414,0,0,0-1.637-1.2c-.41-.087-1.733-.5-1.966-1.584.643.351,1.058.152,1.82-.288-.41-.028-1.023-.994-1.023-.994a1.028,1.028,0,0,0,1.023-.321c-1.376-.673-1.756-2.78-2.779-3.863s-.936-1.462-.585-1.578a12.546,12.546,0,0,1,2.1,0c-.086-1.111-1.49-1.756-2.016-2.34a3.106,3.106,0,0,1,1.462.555,3.635,3.635,0,0,0-.67-1.7c-.526-.557-.6-1.43-.968-1.567s-.331-.878-.331-.878-.245.082.321-.052.937.294.975.234-.429-.546-.741-.644-.448-.741-.663-1.052-.4-.752-.2-.793a5.079,5.079,0,0,1,1.6.519,5.787,5.787,0,0,0-1.49-1.779,2.03,2.03,0,0,1-.264-1.789c.194-.741-.468-.155-.663-1.287-.154-.893-.222-1.873-.28-2.264,0,0-.043-.2-.1-.193-.011,0,.021.047-.008.047s.006-.047-.007-.047a2.956,2.956,0,0,0-.138.574c-.059.39-.243,1.01-.4,1.9-.193,1.131-.7.527-.5,1.268a2.027,2.027,0,0,1-.395,1.8,5.667,5.667,0,0,0-1.36,1.765,3.786,3.786,0,0,1,1.462-.36c.2.039.155.321-.058.634s-.351.955-.663,1.052-.78.585-.741.644.409-.37.975-.234.325.126.325.126.041.741-.33.878-.448.936-.973,1.493a3.641,3.641,0,0,0-.671,1.7,3.106,3.106,0,0,1,1.463-.555c-.526.584-1.93,1.229-2.017,2.34a12.558,12.558,0,0,1,2.105,0c.352.116.439.5-.585,1.578s-1.4,3.19-2.778,3.863a1.027,1.027,0,0,0,1.022.321s-.613.966-1.022.994a1.721,1.721,0,0,0,1.915.148c-.235,1.081-1.652,1.637-2.062,1.724a4.41,4.41,0,0,0-1.638,1.2c0,.176.878-.145.878-.145s-1.21,2.088-2.517,2.516c1.172.428,5.09-.176,5.15-.176s-3.686,2.749-4.623,3.393a30.371,30.371,0,0,0,6.129.511v.015s.845.012,2.055.007,2.056-.007,2.056-.007l0-.015a30.367,30.367,0,0,0,6.13-.511C475.783,452.138,472.039,449.389,472.1,449.389Z" transform="translate(-459.826 -422.342)" fill="#3d3f66"/>
</svg>
